<svg xmlns="http://www.w3.org/2000/svg" width="158" height="49" viewBox="0 0 158 49" fill="none"><path d="M46.6232 9.76364V39H42.212V9.76364H46.6232ZM50.8013 13.5609V9.76364H73.4281V13.5609H64.306V39H59.9091V13.5609H50.8013Z" fill="#282828"></path><path d="M87.3172 39H76.9532V9.76364H87.4029C90.3436 9.76364 92.8752 10.3489 94.9975 11.5195C97.1198 12.6806 98.752 14.3509 99.894 16.5303C101.046 18.7097 101.621 21.3173 101.621 24.3533C101.621 27.3987 101.046 30.0159 99.894 32.2048C98.752 34.3938 97.1103 36.0735 94.9689 37.2441C92.8371 38.4147 90.2865 39 87.3172 39ZM83.1345 33.7038H87.0603C88.8875 33.7038 90.4245 33.3802 91.6713 32.733C92.9275 32.0763 93.8697 31.0628 94.4978 29.6923C95.1355 28.3124 95.4543 26.5327 95.4543 24.3533C95.4543 22.1929 95.1355 20.4275 94.4978 19.057C93.8697 17.6866 92.9323 16.6778 91.6855 16.0306C90.4388 15.3835 88.9018 15.0599 87.0745 15.0599H83.1345V33.7038ZM123.455 9.76364H129.636V28.7501C129.636 30.882 129.127 32.7473 128.109 34.3462C127.1 35.945 125.687 37.1918 123.869 38.0864C122.051 38.9714 119.934 39.414 117.516 39.414C115.089 39.414 112.967 38.9714 111.149 38.0864C109.332 37.1918 107.918 35.945 106.909 34.3462C105.901 32.7473 105.396 30.882 105.396 28.7501V9.76364H111.578V28.2219C111.578 29.3354 111.82 30.3252 112.306 31.1913C112.8 32.0573 113.495 32.7378 114.39 33.2327C115.284 33.7276 116.327 33.975 117.516 33.975C118.715 33.975 119.757 33.7276 120.643 33.2327C121.537 32.7378 122.227 32.0573 122.712 31.1913C123.207 30.3252 123.455 29.3354 123.455 28.2219V9.76364ZM133.918 39V9.76364H145.624C147.775 9.76364 149.569 10.0825 151.006 10.7201C152.443 11.3577 153.523 12.2428 154.246 13.3754C154.97 14.4984 155.331 15.7927 155.331 17.2583C155.331 18.4004 155.103 19.4044 154.646 20.2705C154.189 21.127 153.561 21.8313 152.762 22.3832C151.972 22.9257 151.068 23.3112 150.049 23.5396V23.8251C151.163 23.8727 152.205 24.1867 153.176 24.7673C154.156 25.3478 154.95 26.1615 155.56 27.2084C156.169 28.2457 156.473 29.483 156.473 30.92C156.473 32.4713 156.088 33.856 155.317 35.0742C154.556 36.2829 153.428 37.2393 151.934 37.9436C150.439 38.6479 148.598 39 146.409 39H133.918ZM140.099 33.9464H145.138C146.861 33.9464 148.117 33.6181 148.907 32.9614C149.697 32.2952 150.092 31.4102 150.092 30.3062C150.092 29.4972 149.897 28.7835 149.507 28.1648C149.117 27.5462 148.56 27.0609 147.836 26.7087C147.123 26.3566 146.271 26.1805 145.281 26.1805H140.099V33.9464ZM140.099 21.9978H144.682C145.529 21.9978 146.28 21.8503 146.937 21.5553C147.603 21.2507 148.127 20.8224 148.507 20.2705C148.898 19.7185 149.093 19.057 149.093 18.2862C149.093 17.2298 148.717 16.378 147.965 15.7308C147.223 15.0837 146.166 14.7601 144.796 14.7601H140.099V21.9978Z" fill="#1B9C85"></path><rect x="6.9209" y="17.4062" width="34.0535" height="9.60705" rx="1.65961" transform="rotate(45 6.9209 17.4062)" fill="#006558"></rect><path d="M1.17352 25.2531C0.525404 24.605 0.525404 23.5542 1.17352 22.9061L22.906 1.17363C23.5541 0.525516 24.6049 0.525517 25.253 1.17364L29.6992 5.6198C30.3473 6.26792 30.3473 7.31873 29.6992 7.96685L6.79321 30.8728L1.17352 25.2531Z" fill="#1B9C85"></path><g filter="url(#filter0_f_35_10)"><path d="M14.5155 24.9968L6.79736 30.8581L13.5944 24.0757L14.5155 24.9968Z" fill="#3B3B3B" fill-opacity="0.51"></path></g><defs><filter id="filter0_f_35_10" x="6.0986" y="23.3769" width="9.11579" height="8.17976" filterUnits="userSpaceOnUse" color-interpolation-filters="sRGB"><feGaussianBlur stdDeviation="0.349382"></feGaussianBlur></filter></defs></svg>